<?xml version="1.0" encoding="UTF-8" standalone="no"?>
<svg width="200" height="200" viewBox="0 0 200 200" fill="none" xmlns="http://www.w3.org/2000/svg">
  <!-- Red location pin background -->
  <path d="M100 10C78.5 10 61.25 27.25 61.25 48.75C61.25 77.5 100 140 100 140C100 140 138.75 77.5 138.75 48.75C138.75 27.25 121.5 10 100 10Z" fill="#E53935"/>
  
  <!-- Airplane icon -->
  <path d="M125 55L105 75L65 60L55 70L85 85L65 105L50 100L45 105L60 115L70 130L75 125L70 110L90 90L105 120L115 110L100 70L120 50C123.75 46.25 130 46.25 133.75 50C137.5 53.75 137.5 60 133.75 63.75L125 55Z" fill="white"/>
  
  <!-- Palm tree icon -->
  <path d="M100 120C100 120 95 110 90 105C85 100 80 100 80 100C80 100 85 95 95 100C95 100 90 90 85 85C80 80 75 80 75 80C75 80 80 75 90 80C90 80 85 70 80 65C75 60 70 60 70 60C70 60 75 55 85 60C85 60 85 50 90 55C95 60 100 70 100 70L105 120L95 120L100 120Z" fill="white"/>
  
  <!-- Triangle at bottom of pin -->
  <path d="M100 140L85 120H115L100 140Z" fill="white"/>
</svg>